<svg xmlns="http://www.w3.org/2000/svg" version="1.1" xmlns:xlink="http://www.w3.org/1999/xlink" xmlns:svgjs="http://svgjs.dev/svgjs" viewBox="0 0 10.770949742561157 1.8918662648065485"><g transform="matrix(1,0,0,1,1.9889880297822478,0.3751831324032744)"><g><path d=" M 1.176 0.1034999999999997 L 1.176 1.1414999999999997 L 1.0395 1.1414999999999997 L 1.0395 0.3674999999999997 L 0.6945 1.1414999999999997 L 0.5985 1.1414999999999997 L 0.252 0.36599999999999977 L 0.252 1.1414999999999997 L 0.1155 1.1414999999999997 L 0.1155 0.1034999999999997 L 0.2625 0.1034999999999997 L 0.6465 0.9614999999999998 L 1.0305 0.1034999999999997 L 1.176 0.1034999999999997 M 2.1675344238281253 0.7814999999999998 L 1.510534423828125 0.7814999999999998 Q 1.5180344238281251 0.9029999999999997 1.5937844238281251 0.9712499999999997 Q 1.6695344238281251 1.0394999999999996 1.7775344238281252 1.0394999999999996 Q 1.866034423828125 1.0394999999999996 1.925284423828125 0.9982499999999997 Q 1.984534423828125 0.9569999999999997 2.008534423828125 0.8879999999999997 L 2.155534423828125 0.8879999999999997 Q 2.1225344238281254 1.0064999999999997 2.023534423828125 1.0807499999999997 Q 1.924534423828125 1.1549999999999998 1.7775344238281252 1.1549999999999998 Q 1.6605344238281252 1.1549999999999998 1.568284423828125 1.1024999999999998 Q 1.476034423828125 1.0499999999999998 1.4235344238281251 0.9532499999999997 Q 1.3710344238281251 0.8564999999999997 1.3710344238281251 0.7289999999999996 Q 1.3710344238281251 0.6014999999999997 1.422034423828125 0.5054999999999997 Q 1.4730344238281252 0.40949999999999975 1.5652844238281252 0.3577499999999997 Q 1.657534423828125 0.3059999999999997 1.7775344238281252 0.3059999999999997 Q 1.8945344238281252 0.3059999999999997 1.984534423828125 0.35699999999999976 Q 2.0745344238281254 0.4079999999999997 2.123284423828125 0.49724999999999975 Q 2.172034423828125 0.5864999999999997 2.172034423828125 0.6989999999999997 Q 2.172034423828125 0.7379999999999998 2.1675344238281253 0.7814999999999998 M 1.996534423828125 0.5362499999999997 Q 1.962034423828125 0.47999999999999976 1.902784423828125 0.45074999999999976 Q 1.843534423828125 0.42149999999999976 1.7715344238281252 0.42149999999999976 Q 1.668034423828125 0.42149999999999976 1.5952844238281252 0.4874999999999997 Q 1.522534423828125 0.5534999999999998 1.5120344238281251 0.6704999999999997 L 2.031034423828125 0.6704999999999997 Q 2.031034423828125 0.5924999999999997 1.996534423828125 0.5362499999999997 M 2.367027099609375 0.5062499999999998 Q 2.4180270996093753 0.4109999999999997 2.507277099609375 0.3584999999999997 Q 2.5965270996093754 0.3059999999999997 2.707527099609375 0.3059999999999997 Q 2.8035270996093753 0.3059999999999997 2.8860270996093753 0.35024999999999973 Q 2.9685270996093753 0.39449999999999974 3.012027099609375 0.4664999999999997 L 3.012027099609375 0.03149999999999964 L 3.150027099609375 0.03149999999999964 L 3.150027099609375 1.1414999999999997 L 3.012027099609375 1.1414999999999997 L 3.012027099609375 0.9869999999999998 Q 2.971527099609375 1.0604999999999998 2.892027099609375 1.1077499999999998 Q 2.812527099609375 1.1549999999999998 2.706027099609375 1.1549999999999998 Q 2.5965270996093754 1.1549999999999998 2.507277099609375 1.1009999999999998 Q 2.4180270996093753 1.0469999999999997 2.367027099609375 0.9494999999999998 Q 2.316027099609375 0.8519999999999998 2.316027099609375 0.7274999999999997 Q 2.316027099609375 0.6014999999999997 2.367027099609375 0.5062499999999998 M 2.974527099609375 0.5669999999999997 Q 2.9370270996093755 0.4979999999999998 2.8732770996093753 0.4612499999999997 Q 2.809527099609375 0.42449999999999977 2.7330270996093753 0.42449999999999977 Q 2.6565270996093755 0.42449999999999977 2.5935270996093753 0.4604999999999997 Q 2.530527099609375 0.4964999999999997 2.493027099609375 0.5654999999999997 Q 2.4555270996093754 0.6344999999999997 2.4555270996093754 0.7274999999999997 Q 2.4555270996093754 0.8219999999999997 2.493027099609375 0.8917499999999997 Q 2.530527099609375 0.9614999999999998 2.5935270996093753 0.9982499999999997 Q 2.6565270996093755 1.0349999999999997 2.7330270996093753 1.0349999999999997 Q 2.809527099609375 1.0349999999999997 2.8732770996093753 0.9982499999999997 Q 2.9370270996093755 0.9614999999999998 2.974527099609375 0.8917499999999997 Q 3.012027099609375 0.8219999999999997 3.012027099609375 0.7289999999999996 Q 3.012027099609375 0.6359999999999997 2.974527099609375 0.5669999999999997 M 3.4005651855468755 0.1589999999999997 Q 3.3735651855468753 0.13199999999999967 3.3735651855468753 0.09299999999999975 Q 3.3735651855468753 0.053999999999999604 3.4005651855468755 0.02699999999999969 Q 3.427565185546875 -2.220446049250313e-16 3.4665651855468753 -2.220446049250313e-16 Q 3.5040651855468754 -2.220446049250313e-16 3.5303151855468755 0.02699999999999969 Q 3.5565651855468756 0.053999999999999604 3.5565651855468756 0.09299999999999975 Q 3.5565651855468756 0.13199999999999967 3.5303151855468755 0.1589999999999997 Q 3.5040651855468754 0.18599999999999972 3.4665651855468753 0.18599999999999972 Q 3.427565185546875 0.18599999999999972 3.4005651855468755 0.1589999999999997 M 3.5325651855468756 0.3194999999999997 L 3.5325651855468756 1.1414999999999997 L 3.3960651855468753 1.1414999999999997 L 3.3960651855468753 0.3194999999999997 L 3.5325651855468756 0.3194999999999997 M 4.350022705078126 0.5339999999999997 L 4.350022705078126 0.6494999999999997 L 3.7515227050781257 0.6494999999999997 L 3.7515227050781257 0.5339999999999997 L 4.350022705078126 0.5339999999999997 M 5.682060791015625 0.1034999999999997 L 5.682060791015625 1.1414999999999997 L 5.5455607910156255 1.1414999999999997 L 5.5455607910156255 0.3674999999999997 L 5.200560791015625 1.1414999999999997 L 5.104560791015626 1.1414999999999997 L 4.758060791015625 0.36599999999999977 L 4.758060791015625 1.1414999999999997 L 4.621560791015625 1.1414999999999997 L 4.621560791015625 0.1034999999999997 L 4.768560791015625 0.1034999999999997 L 5.152560791015625 0.9614999999999998 L 5.536560791015625 0.1034999999999997 L 5.682060791015625 0.1034999999999997 M 6.54609521484375 0.9089999999999997 L 6.09009521484375 0.9089999999999997 L 6.00609521484375 1.1414999999999997 L 5.86209521484375 1.1414999999999997 L 6.24009521484375 0.10199999999999965 L 6.39759521484375 0.10199999999999965 L 6.77409521484375 1.1414999999999997 L 6.63009521484375 1.1414999999999997 L 6.54609521484375 0.9089999999999997 M 6.5070952148437495 0.7979999999999997 L 6.3180952148437495 0.2699999999999997 L 6.129095214843749 0.7979999999999997 L 6.5070952148437495 0.7979999999999997 M 7.597612060546876 0.09599999999999964 L 7.597612060546876 0.20699999999999974 L 7.312612060546876 0.20699999999999974 L 7.312612060546876 1.1414999999999997 L 7.176112060546876 1.1414999999999997 L 7.176112060546876 0.20699999999999974 L 6.889612060546876 0.20699999999999974 L 6.889612060546876 0.09599999999999964 L 7.597612060546876 0.09599999999999964 M 7.917135498046875 0.20699999999999974 L 7.917135498046875 0.5564999999999998 L 8.298135498046875 0.5564999999999998 L 8.298135498046875 0.6689999999999997 L 7.917135498046875 0.6689999999999997 L 7.917135498046875 1.0289999999999997 L 8.343135498046875 1.0289999999999997 L 8.343135498046875 1.1414999999999997 L 7.780635498046875 1.1414999999999997 L 7.780635498046875 0.0944999999999998 L 8.343135498046875 0.0944999999999998 L 8.343135498046875 0.20699999999999974 L 7.917135498046875 0.20699999999999974" fill="#382d5e" fill-rule="nonzero"></path></g><g></g><g clip-path="url(#SvgjsClipPath1001)"><g clip-path="url(#SvgjsClipPath10004ad1f5e8-06af-4a69-86ba-94f63c50296c)"><path d=" M -1.0979396243704975 0.8984188089794836 L -1.2580414471676584 1.1693546584000802 L -1.2078895708483883 1.1693546584000802 L -1.0477923767430888 0.8984188089794836 Z" fill="#c84449" transform="matrix(1,0,0,1,0,0)" fill-rule="nonzero"></path></g><g clip-path="url(#SvgjsClipPath10004ad1f5e8-06af-4a69-86ba-94f63c50296c)"><path d=" M -1.5407642103020451 1.0323607574033258 L -1.5156859577964792 1.0747919756976267 L -1.282561892192414 0.6802700535751827 L -1.3327137685116843 0.6802700535751827 Z" fill="#c84449" transform="matrix(1,0,0,1,0,0)" fill-rule="nonzero"></path></g><g clip-path="url(#SvgjsClipPath10004ad1f5e8-06af-4a69-86ba-94f63c50296c)"><path d=" M -1.00701684565529 0.8984188089794836 L -1.167109411068728 1.1693546584000802 L -1.1169667921331805 1.1693546584000802 L -0.9568649693360197 0.8984188089794836 Z" fill="#c84449" transform="matrix(1,0,0,1,0,0)" fill-rule="nonzero"></path></g><g clip-path="url(#SvgjsClipPath10004ad1f5e8-06af-4a69-86ba-94f63c50296c)"><path d=" M -1.4498414315868375 0.5707482642362124 L -1.449846060278699 0.5707482642362124 L -1.6316934774411513 0.8784914713393968 L -1.6066152249355854 0.9209226896336976 L -1.3996988126512901 0.5707482642362124 Z" fill="#c84449" transform="matrix(1,0,0,1,0,0)" fill-rule="nonzero"></path></g><g clip-path="url(#SvgjsClipPath10004ad1f5e8-06af-4a69-86ba-94f63c50296c)"><path d=" M -1.1508769483607308 0.6802714876979391 L -1.439873953424871 1.1693575845506732 L -1.3897267057974623 1.1693575845506732 L -1.1239472191105682 0.7195690816020096 L -1.1239472191105682 0.6802714876979391 Z" fill="#c84449" transform="matrix(1,0,0,1,0,0)" fill-rule="nonzero"></path></g><g clip-path="url(#SvgjsClipPath10004ad1f5e8-06af-4a69-86ba-94f63c50296c)"><path d=" M -1.358915181344055 0.5707482642362124 L -1.3589198100359166 0.5707482642362124 L -1.5862209812782242 0.9554249587692621 L -1.5611473574645198 0.997856177063563 L -1.3420806290438072 0.6271303598010515 L -1.3420806290438072 0.5707482642362124 Z" fill="#c84449" transform="matrix(1,0,0,1,0,0)" fill-rule="nonzero"></path></g><g clip-path="url(#SvgjsClipPath10004ad1f5e8-06af-4a69-86ba-94f63c50296c)"><path d=" M -1.3489484256764073 1.1693576500931138 L -1.298796549357137 1.1693576500931138 L -1.1239430855974 0.8734407506960425 L -1.1239430855974 0.7885736854155793 Z" fill="#c84449" transform="matrix(1,0,0,1,0,0)" fill-rule="nonzero"></path></g><g clip-path="url(#SvgjsClipPath10004ad1f5e8-06af-4a69-86ba-94f63c50296c)"><path d=" M -1.4953010851806539 1.1092828654088074 L -1.4702274613669495 1.1517140837031083 L -1.1916450129911673 0.6802725602263834 L -1.2417968893104376 0.6802725602263834 Z" fill="#c84449" transform="matrix(1,0,0,1,0,0)" fill-rule="nonzero"></path></g><g clip-path="url(#SvgjsClipPath10004ad1f5e8-06af-4a69-86ba-94f63c50296c)"><path d=" M -0.536385323848487 0.3407179040656544 L -0.5614635763540528 0.29828668577135353 L -0.6965565770235702 0.5268977768104637 L -0.6965565770235702 0.6117694707827885 Z" fill="#e37f7c" transform="matrix(1,0,0,1,0,0)" fill-rule="nonzero"></path></g><g clip-path="url(#SvgjsClipPath10004ad1f5e8-06af-4a69-86ba-94f63c50296c)"><path d=" M -0.8917864308603647 0.4805649208944667 L -0.7736575858632169 0.280647090704748 L -0.8238048334906256 0.280647090704748 L -0.9146984555747522 0.4344677786458638 L -0.9146984555747522 0.48109259176667685 Z" fill="#e37f7c" transform="matrix(1,0,0,1,0,0)" fill-rule="nonzero"></path></g><g clip-path="url(#SvgjsClipPath10004ad1f5e8-06af-4a69-86ba-94f63c50296c)"><path d=" M -0.9146985128549571 0.7421965965796874 L -0.9146985128549571 0.8270636618601508 L -0.8279568273705893 0.6802693281647805 L -0.878104074997998 0.6802693281647805 Z" fill="#e37f7c" transform="matrix(1,0,0,1,0,0)" fill-rule="nonzero"></path></g><g clip-path="url(#SvgjsClipPath10004ad1f5e8-06af-4a69-86ba-94f63c50296c)"><path d=" M -0.7871788904447508 0.6802714876979391 L -0.904756921110381 0.8792543221316362 L -0.8546096734829721 0.8792543221316362 L -0.7370316428173419 0.6802714876979391 Z" fill="#e37f7c" transform="matrix(1,0,0,1,0,0)" fill-rule="nonzero"></path></g><g clip-path="url(#SvgjsClipPath10004ad1f5e8-06af-4a69-86ba-94f63c50296c)"><path d=" M -0.5918186761651008 0.28064659090892297 L -0.6419705524843711 0.28064659090892297 L -0.7582803215799523 0.47748634101074927 L -0.7074387701733196 0.47631528196979156 Z" fill="#e37f7c" transform="matrix(1,0,0,1,0,0)" fill-rule="nonzero"></path></g><g clip-path="url(#SvgjsClipPath10004ad1f5e8-06af-4a69-86ba-94f63c50296c)"><path d=" M -0.6827310402975837 0.28064659090892297 L -0.7328782879249924 0.28064659090892297 L -0.8504470612068997 0.47961091057517424 L -0.799605509800267 0.47843985153421664 Z" fill="#e37f7c" transform="matrix(1,0,0,1,0,0)" fill-rule="nonzero"></path></g><g clip-path="url(#SvgjsClipPath10004ad1f5e8-06af-4a69-86ba-94f63c50296c)"><path d=" M -0.5160005139284496 0.3752214166329656 L -0.8138336917561787 0.8792535595064586 L -0.7636864441287698 0.8792535595064586 L -0.49092226142288387 0.4176526349272665 Z" fill="#e37f7c" transform="matrix(1,0,0,1,0,0)" fill-rule="nonzero"></path></g><g clip-path="url(#SvgjsClipPath10004ad1f5e8-06af-4a69-86ba-94f63c50296c)"><path d=" M -0.6319946647898611 0.8792525052382494 L -0.5818520458543137 0.8792525052382494 L -0.40000000000000013 0.571518555518788 L -0.40000000000000013 0.5715046694432036 L -0.4250736238137045 0.5290780798407642 Z" fill="#e37f7c" transform="matrix(1,0,0,1,0,0)" fill-rule="nonzero"></path></g><g clip-path="url(#SvgjsClipPath10004ad1f5e8-06af-4a69-86ba-94f63c50296c)"><path d=" M -0.47054086033463327 0.4521435246384472 L -0.7229249127743684 0.8792560661576594 L -0.6727730364550981 0.8792560661576594 L -0.4454672365209289 0.49457474293274806 Z" fill="#e37f7c" transform="matrix(1,0,0,1,0,0)" fill-rule="nonzero"></path></g><g clip-path="url(#SvgjsClipPath10004ad1f5e8-06af-4a69-86ba-94f63c50296c)"><path d=" M -0.8645800692555737 0.28064659090892297 L -0.9146995447318136 0.28064659090892297 L -0.9146995447318136 0.3654581118870484 Z" fill="#e37f7c" transform="matrix(1,0,0,1,0,0)" fill-rule="nonzero"></path></g><g clip-path="url(#SvgjsClipPath10004ad1f5e8-06af-4a69-86ba-94f63c50296c)"><path d=" M -1.3688854085392776 -0.027857650093114028 L -1.5961912084734469 0.3568190444399357 L -1.5711175846597425 0.3992502627342366 L -1.3187335322200073 -0.027857650093114028 Z" fill="#382d5e" transform="matrix(1,0,0,1,0,0)" fill-rule="nonzero"></path></g><g clip-path="url(#SvgjsClipPath10004ad1f5e8-06af-4a69-86ba-94f63c50296c)"><path d=" M -1.4598151303096352 -0.027857650093114028 L -1.6416625474720874 0.2798901857019318 L -1.61657966627466 0.3223167753043712 L -1.4096632539903649 -0.027857650093114028 Z" fill="#382d5e" transform="matrix(1,0,0,1,0,0)" fill-rule="nonzero"></path></g><g clip-path="url(#SvgjsClipPath10004ad1f5e8-06af-4a69-86ba-94f63c50296c)"><path d=" M -1.3996952157668545 0.5707482642362124 L -1.0814680215973898 0.032213852227154983 L -1.1065462741029557 -0.010217366067145968 L -1.4498424633942633 0.5707482642362124 Z" fill="#382d5e" transform="matrix(1,0,0,1,0,0)" fill-rule="nonzero"></path></g><g clip-path="url(#SvgjsClipPath10004ad1f5e8-06af-4a69-86ba-94f63c50296c)"><path d=" M -1.0360041009060241 0.10914965717939876 L -1.0610777247197287 0.06671843888509783 L -1.3034915748898093 0.47695476987730867 L -1.2540154875823168 0.4780934280752358 Z" fill="#382d5e" transform="matrix(1,0,0,1,0,0)" fill-rule="nonzero"></path></g><g clip-path="url(#SvgjsClipPath10004ad1f5e8-06af-4a69-86ba-94f63c50296c)"><path d=" M -1.1239413659067847 0.4118182603279646 L -1.1239413659067847 0.32694656635563973 L -1.2138027897057986 0.47902223746497286 L -1.1643267023983062 0.4801608956629 Z" fill="#382d5e" transform="matrix(1,0,0,1,0,0)" fill-rule="nonzero"></path></g><g clip-path="url(#SvgjsClipPath10004ad1f5e8-06af-4a69-86ba-94f63c50296c)"><path d=" M -1.1870467941640124 -0.027857650093114028 L -1.505264730949754 0.5106767619159434 L -1.4801911071360496 0.5531079802102443 L -1.1368949178447423 -0.027857650093114028 Z" fill="#382d5e" transform="matrix(1,0,0,1,0,0)" fill-rule="nonzero"></path></g><g clip-path="url(#SvgjsClipPath10004ad1f5e8-06af-4a69-86ba-94f63c50296c)"><path d=" M -1.27796262982407 -0.027857650093114028 L -1.5507268125299563 0.433752531869801 L -1.5256485600243905 0.47618375016410186 L -1.2278107535047997 -0.027857650093114028 Z" fill="#382d5e" transform="matrix(1,0,0,1,0,0)" fill-rule="nonzero"></path></g><g clip-path="url(#SvgjsClipPath10004ad1f5e8-06af-4a69-86ba-94f63c50296c)"><path d=" M -1.3420817441331794 0.542267852011419 L -1.3589162964334274 0.5707528217270433 L -1.3420817441331794 0.5707528217270433 Z" fill="#382d5e" transform="matrix(1,0,0,1,0,0)" fill-rule="nonzero"></path></g><g clip-path="url(#SvgjsClipPath10004ad1f5e8-06af-4a69-86ba-94f63c50296c)"><path d=" M -0.9701561658645956 0.22057180622461667 L -0.9951927601434081 0.2629428515247182 L -0.9451149428939217 0.2629428515247182 Z" fill="#382d5e" transform="matrix(1,0,0,1,0,0)" fill-rule="nonzero"></path></g><g clip-path="url(#SvgjsClipPath10004ad1f5e8-06af-4a69-86ba-94f63c50296c)"><path d=" M -0.9905444473122079 0.1860717651848804 L -1.0156180711259124 0.14364054689057945 L -1.0861176768683032 0.2629450796205463 L -1.0359704292408944 0.2629450796205463 Z" fill="#382d5e" transform="matrix(1,0,0,1,0,0)" fill-rule="nonzero"></path></g></g></g><defs><clipPath id="SvgjsClipPath1001"><path d=" M -1.6416625474720874 -0.027857650093114028 h 1.2416625474720873 v 1.1972153001862278 h -1.2416625474720873 Z"></path></clipPath><clipPath id="SvgjsClipPath10004ad1f5e8-06af-4a69-86ba-94f63c50296c"><path d=" M -1.6416625474720874 -0.027857650093114028 L -0.40000000000000013 -0.027857650093114028 L -0.40000000000000013 1.1693576500931138 L -1.6416625474720874 1.1693576500931138 Z"></path></clipPath></defs></svg>